<?xml version="1.0" standalone="no"?>
<!DOCTYPE svg PUBLIC "-//W3C//DTD SVG 20010904//EN"
 "http://www.w3.org/TR/2001/REC-SVG-20010904/DTD/svg10.dtd">
<svg version="1.0" xmlns="http://www.w3.org/2000/svg"
 width="200.000000pt" height="200.000000pt" viewBox="0 0 200.000000 200.000000"
 preserveAspectRatio="xMidYMid meet">
<metadata>
Created by potrace 1.14, written by Peter Selinger 2001-2017
</metadata>
<g transform="translate(0.000000,200.000000) scale(0.100000,-0.100000)"
fill="#000000" stroke="none">
<path d="M0 1000 l0 -450 1000 0 1000 0 0 450 0 450 -1000 0 -1000 0 0 -450z
m691 389 c153 -50 255 -163 278 -307 32 -209 -117 -409 -325 -437 -185 -24
-379 111 -418 292 l-7 32 31 -29 c23 -21 42 -30 66 -30 103 0 150 125 73 193
-28 25 -38 29 -76 24 -28 -3 -54 -14 -69 -28 l-26 -24 7 30 c13 58 69 157 109
192 23 19 66 46 96 60 30 14 62 29 70 34 22 12 152 11 191 -2z m911 -18 c154
-60 252 -239 227 -411 -16 -109 -101 -225 -200 -276 -100 -50 -247 -51 -345
-1 -89 45 -166 140 -195 239 -9 33 -5 34 28 8 66 -52 173 2 173 88 0 47 -29
88 -77 108 -28 12 -38 12 -67 0 -18 -8 -37 -19 -40 -25 -17 -26 -22 -8 -10 30
25 72 54 120 101 165 44 43 119 84 154 84 10 0 21 5 25 11 11 19 162 5 226
-20z"/>
</g>
</svg>
